<svg xmlns="http://www.w3.org/2000/svg" viewBox="0 0 640 480" style="display:none;">
  <!-- Azure Labyrinth Enemies -->
  <symbol id="corrupted-oracle" viewBox="0 0 32 32">
    <!-- Flowing robe body -->
    <rect x="10" y="14" width="12" height="14" />
    <!-- Hood -->
    <rect x="10" y="6" width="12" height="8" />
    <!-- Face (distorted) -->
    <rect x="14" y="10" width="1" height="1" />
    <rect x="17" y="10" width="1" height="1" />
    <rect x="15" y="13" width="2" height="1" />
    <!-- Chaotic aura -->
    <rect x="8" y="8" width="2" height="6" />
    <rect x="6" y="12" width="2" height="4" />
    <rect x="22" y="8" width="2" height="6" />
    <rect x="24" y="12" width="2" height="4" />
    <!-- Crystal ball -->
    <rect x="13" y="20" width="6" height="6" />
  </symbol>

  <symbol id="echo-minotaur" viewBox="0 0 32 32">
    <!-- Bulky body -->
    <rect x="9" y="12" width="14" height="12" />
    <!-- Arms -->
    <rect x="5" y="12" width="4" height="10" />
    <rect x="23" y="12" width="4" height="10" />
    <!-- Legs -->
    <rect x="11" y="24" width="4" height="6" />
    <rect x="17" y="24" width="4" height="6" />
    <!-- Horned head -->
    <rect x="11" y="4" width="10" height="8" />
    <rect x="8" y="4" width="3" height="2" />
    <rect x="21" y="4" width="3" height="2" />
    <!-- Face -->
    <rect x="13" y="8" width="2" height="2" />
    <rect x="17" y="8" width="2" height="2" />
    <rect x="15" y="11" width="2" height="1" />
    <!-- Axe -->
    <rect x="23" y="8" width="6" height="2" />
    <rect x="25" y="10" width="2" height="4" />
  </symbol>

  <symbol id="forgotten-philosopher" viewBox="0 0 32 32">
    <!-- Body -->
    <rect x="12" y="14" width="8" height="12" />
    <!-- Head with beard -->
    <rect x="12" y="6" width="8" height="8" />
    <rect x="13" y="14" width="6" height="3" />
    <!-- Arms -->
    <rect x="8" y="14" width="4" height="8" />
    <rect x="20" y="14" width="4" height="8" />
    <!-- Legs -->
    <rect x="12" y="26" width="3" height="4" />
    <rect x="17" y="26" width="3" height="4" />
    <!-- Scroll -->
    <rect x="8" y="22" width="4" height="6" />
    <!-- Glowing symbols -->
    <rect x="9" y="23" width="2" height="1" />
    <rect x="9" y="25" width="2" height="1" />
    <rect x="9" y="27" width="2" height="1" />
  </symbol>

  <!-- Obsidian Dunes Enemies -->
  <symbol id="restless-pharaoh" viewBox="0 0 32 32">
    <!-- Body -->
    <rect x="12" y="14" width="8" height="12" />
    <!-- Head with pharaoh mask -->
    <rect x="12" y="6" width="8" height="8" />
    <!-- Headdress -->
    <rect x="10" y="6" width="12" height="2" />
    <rect x="11" y="4" width="10" height="2" />
    <rect x="13" y="2" width="6" height="2" />
    <!-- Arms -->
    <rect x="8" y="14" width="4" height="10" />
    <rect x="20" y="14" width="4" height="10" />
    <!-- Legs -->
    <rect x="12" y="26" width="3" height="4" />
    <rect x="17" y="26" width="3" height="4" />
    <!-- Staff and flail -->
    <rect x="8" y="10" width="2" height="8" />
    <rect x="22" y="14" width="2" height="6" />
  </symbol>

  <symbol id="chaos-serpent" viewBox="0 0 32 32">
    <!-- Serpent body (coiled) -->
    <rect x="10" y="16" width="12" height="4" />
    <rect x="8" y="20" width="16" height="4" />
    <rect x="6" y="24" width="20" height="4" />
    <!-- Head -->
    <rect x="12" y="8" width="8" height="8" />
    <rect x="10" y="12" width="2" height="4" />
    <rect x="20" y="12" width="2" height="4" />
    <!-- Eyes -->
    <rect x="13" y="10" width="2" height="2" />
    <rect x="17" y="10" width="2" height="2" />
    <!-- Fangs -->
    <rect x="13" y="16" width="2" height="2" />
    <rect x="17" y="16" width="2" height="2" />
    <!-- Chaotic aura -->
    <rect x="10" y="6" width="2" height="2" />
    <rect x="20" y="6" width="2" height="2" />
    <rect x="8" y="8" width="2" height="2" />
    <rect x="22" y="8" width="2" height="2" />
  </symbol>

  <symbol id="corrupted-anubis" viewBox="0 0 32 32">
    <!-- Body -->
    <rect x="12" y="14" width="8" height="12" />
    <!-- Jackal head -->
    <rect x="10" y="6" width="12" height="8" />
    <rect x="10" y="4" width="4" height="2" />
    <rect x="18" y="4" width="4" height="2" />
    <!-- Ears -->
    <rect x="9" y="2" width="2" height="4" />
    <rect x="21" y="2" width="2" height="4" />
    <!-- Arms -->
    <rect x="8" y="14" width="4" height="10" />
    <rect x="20" y="14" width="4" height="10" />
    <!-- Legs -->
    <rect x="12" y="26" width="3" height="4" />
    <rect x="17" y="26" width="3" height="4" />
    <!-- Eyes -->
    <rect x="13" y="8" width="2" height="2" />
    <rect x="17" y="8" width="2" height="2" />
    <!-- Staff -->
    <rect x="24" y="10" width="2" height="14" />
  </symbol>

  <!-- Jade Canopy Enemies -->
  <symbol id="twisted-dragon" viewBox="0 0 32 32">
    <!-- Dragon body -->
    <rect x="6" y="16" width="20" height="6" />
    <!-- Neck -->
    <rect x="18" y="10" width="6" height="6" />
    <!-- Head -->
    <rect x="24" y="8" width="6" height="6" />
    <!-- Eyes -->
    <rect x="25" y="9" width="1" height="1" />
    <rect x="28" y="9" width="1" height="1" />
    <!-- Horns -->
    <rect x="25" y="6" width="2" height="2" />
    <rect x="28" y="6" width="2" height="2" />
    <!-- Legs -->
    <rect x="6" y="22" width="4" height="4" />
    <rect x="22" y="22" width="4" height="4" />
    <!-- Tail -->
    <rect x="2" y="14" width="4" height="4" />
    <rect x="4" y="12" width="2" height="2" />
    <!-- Wings -->
    <rect x="10" y="10" width="8" height="2" />
    <rect x="8" y="12" width="10" height="2" />
    <rect x="8" y="14" width="6" height="2" />
  </symbol>

  <symbol id="vengeful-spirit" viewBox="0 0 32 32">
    <!-- Ghost-like form -->
    <rect x="12" y="8" width="8" height="8" />
    <rect x="10" y="16" width="12" height="4" />
    <rect x="8" y="20" width="16" height="4" />
    <rect x="10" y="24" width="4" height="4" />
    <rect x="18" y="24" width="4" height="4" />
    <!-- Glowing eyes -->
    <rect x="14" y="12" width="1" height="1" />
    <rect x="17" y="12" width="1" height="1" />
    <!-- Mouth (wailing) -->
    <rect x="14" y="14" width="4" height="2" />
    <!-- Wispy elements -->
    <rect x="9" y="10" width="1" height="4" />
    <rect x="22" y="10" width="1" height="4" />
    <rect x="7" y="14" width="1" height="4" />
    <rect x="24" y="14" width="1" height="4" />
  </symbol>

  <symbol id="fallen-monk" viewBox="0 0 32 32">
    <!-- Body -->
    <rect x="12" y="12" width="8" height="12" />
    <!-- Head (bald) -->
    <rect x="12" y="4" width="8" height="8" />
    <!-- Arms in combat pose -->
    <rect x="7" y="12" width="5" height="4" />
    <rect x="20" y="12" width="5" height="4" />
    <rect x="8" y="16" width="4" height="4" />
    <rect x="20" y="16" width="4" height="4" />
    <!-- Legs in stance -->
    <rect x="10" y="24" width="5" height="6" />
    <rect x="17" y="24" width="5" height="6" />
    <!-- Face -->
    <rect x="14" y="7" width="1" height="1" />
    <rect x="17" y="7" width="1" height="1" />
    <rect x="15" y="9" width="2" height="1" />
    <!-- Robes -->
    <rect x="10" y="12" width="12" height="2" />
    <!-- Corrupted chi energy -->
    <rect x="7" y="14" width="2" height="2" />
    <rect x="23" y="14" width="2" height="2" />
  </symbol>

  <!-- Echo Entities -->
  <symbol id="echo-balanced" viewBox="0 0 32 32">
    <!-- Geometric balanced shape -->
    <rect x="12" y="12" width="8" height="8" />
    <rect x="10" y="14" width="2" height="4" />
    <rect x="20" y="14" width="2" height="4" />
    <rect x="14" y="10" width="4" height="2" />
    <rect x="14" y="20" width="4" height="2" />
    <!-- Center point -->
    <rect x="14" y="14" width="4" height="4" />
  </symbol>

  <symbol id="echo-corrupted" viewBox="0 0 32 32">
    <!-- Chaotic corrupted shape -->
    <rect x="12" y="14" width="8" height="6" />
    <rect x="10" y="16" width="2" height="4" />
    <rect x="20" y="13" width="2" height="5" />
    <rect x="14" y="10" width="4" height="4" />
    <rect x="13" y="20" width="6" height="2" />
    <!-- Instability elements -->
    <rect x="8" y="14" width="2" height="2" />
    <rect x="22" y="18" width="2" height="2" />
    <rect x="16" y="8" width="2" height="2" />
    <rect x="11" y="22" width="2" height="2" />
  </symbol>

  <symbol id="echo-purified" viewBox="0 0 32 32">
    <!-- Harmonious purified shape -->
    <rect x="12" y="12" width="8" height="8" />
    <!-- Outer glow shape -->
    <rect x="10" y="14" width="2" height="4" />
    <rect x="20" y="14" width="2" height="4" />
    <rect x="14" y="10" width="4" height="2" />
    <rect x="14" y="20" width="4" height="2" />
    <!-- Inner harmony circle -->
    <rect x="14" y="14" width="4" height="4" />
    <!-- Rays -->
    <rect x="8" y="8" width="2" height="2" />
    <rect x="22" y="8" width="2" height="2" />
    <rect x="8" y="22" width="2" height="2" />
    <rect x="22" y="22" width="2" height="2" />
  </symbol>
</svg>
